<?xml version="1.0" encoding="utf-8"?>
<!-- Generator: Adobe Illustrator 22.1.0, SVG Export Plug-In . SVG Version: 6.00 Build 0)  -->
<svg version="1.1" id="Layer_1" xmlns="http://www.w3.org/2000/svg" xmlns:xlink="http://www.w3.org/1999/xlink" x="0px" y="0px"
	 viewBox="0 0 100 100" style="enable-background:new 0 0 100 100;" xml:space="preserve">
<style type="text/css">
	.st0{fill:#000201;}
	.st1{fill:#00A652;}
	.st2{fill:#F15E4A;}
	.st3{fill:#FFFFFF;}
</style>
<g>
	<g>
		<path class="st0" d="M54,54.3c0,0,24.1,11.9,27.1,28.1L92,69.8l3.4-13.6c0,0-10.3-11.9-22-17.5l-5.8,7L60,52.4L54,54.3z"/>
		<g>
			<path class="st1" d="M79.2,16.6C88.5,24.8,94,36.7,94,49.5c0,24.2-19.7,43.9-43.9,43.9c-0.4,0-0.9,0-1.3,0
				c-2.9-0.1-5.6-1.1-7.7-2.9c-3.7-3.1-7.8-8.3-6.5-15.3c0.4-2.1,1.3-4.1,2.7-6.1c2.3-3.3,6.5-8,13.4-11.2c1.2-0.6,2.4-1.1,3.5-1.6
				c8.9-4.1,14.3-6.5,21-16.9C79.6,32.4,80.9,24.2,79.2,16.6 M68.5,5.3c0.3,0.3,0.6,0.7,0.9,1c7.7,8.5,8.5,21.3,2.3,31
				c-6.8,10.6-11.8,11.9-22.8,17c-7.9,3.7-12.6,9-15,12.6c-1.6,2.3-2.8,4.9-3.3,7.7c-1.7,9,3.6,15.4,7.8,19
				c2.9,2.4,6.5,3.8,10.2,3.9c0.5,0,1,0,1.4,0C76.5,97.5,98,76,98,49.5C98,29.6,85.8,12.5,68.5,5.3L68.5,5.3z"/>
		</g>
	</g>
	<g>
		<path class="st2" d="M11.3,78.3c5.1,7,12.1,12.5,20.2,15.9c-0.3-0.3-0.6-0.7-0.9-1c-4-4.4-6.1-10-6.4-15.7
			C19.4,77.1,12.5,78.1,11.3,78.3z"/>
		<path class="st2" d="M17.6,57.1c-5-1.4-13.5-0.6-15-0.4c0.9,6.7,3.2,12.9,6.6,18.4c4.7-1.9,13.8-1.2,15.1-1.1
			c0.4-4.1,1.7-8.1,4-11.7c0.7-1,1.3-1.9,1.9-2.8C25.2,60.4,23,58.7,17.6,57.1z"/>
		<path class="st3" d="M20.2,53c-3.7-2.2-15.8-1.8-18.1-1.7c0,1.8,0.2,3.6,0.4,5.3c1.5-0.2,10-1,15,0.4c5.5,1.5,7.7,3.2,12.6,2.4
			c1.3-1.8,2.5-3.2,3.8-4.4C32.1,55.1,23.8,55.2,20.2,53z"/>
		<path class="st3" d="M9.1,75.1c0.7,1.1,1.4,2.2,2.2,3.2c1.2-0.2,8.1-1.2,12.9-0.8c-0.1-1.2,0-2.4,0.1-3.6
			C22.9,73.9,13.8,73.2,9.1,75.1z"/>
		<path class="st3" d="M37.5,29.6c-11.7-3.1-21.8-6.2-25.1-9.3c-1.2,1.6-2.4,3.2-3.4,5c1.6,0.7,13.9,6.1,20.5,7
			c6.9,0.9,18.9,10.3,19.2,14.1c0.8-0.4,1.7-0.8,2.6-1.2c0.7-0.3,1.4-0.7,2.1-1.1C52.7,42.6,48.5,32.6,37.5,29.6z"/>
		<path class="st2" d="M61.6,6c-2.9-2.4-6.5-3.8-10.2-3.9c-0.5,0-1,0-1.4,0c-4.6,0-9.1,0.7-13.3,1.9c1.8,1.4,11.5,8.8,15.3,10.1
			C56,15.4,65.7,21.1,69,26.9c0.2-0.6,0.3-1.2,0.5-1.9C71.1,16,65.9,9.6,61.6,6z"/>
		<path class="st3" d="M51.9,14c-3.7-1.2-13.4-8.6-15.3-10.1c-2.1,0.6-4.2,1.4-6.1,2.2c1.8,1.5,11.9,9.6,18.9,12.5
			c7.5,3.1,16.1,10.3,17.4,13c0.9-1.5,1.7-3.1,2.2-4.8C65.7,21.1,56,15.4,51.9,14z"/>
		<path class="st2" d="M49.4,18.7c-7-2.9-17.1-11-18.9-12.5c-7.2,3.2-13.4,8.1-18.2,14.2c3.3,3.1,13.5,6.1,25.1,9.3
			c11.1,3,15.2,13,15.8,14.5c6.6-3.6,10.7-8.3,12.9-11.5c0.2-0.3,0.4-0.6,0.6-1C65.6,29,57,21.8,49.4,18.7z"/>
		<path class="st2" d="M29.4,32.3c-6.6-0.8-18.9-6.3-20.5-7C4.6,32.6,2.1,41,2.1,50c0,0.4,0,0.9,0,1.3c2.3-0.1,14.4-0.5,18.1,1.7
			c3.6,2.2,11.9,2.1,13.8,2.1c4-3.9,8.3-5.8,14.6-8.6C48.3,42.6,36.3,33.2,29.4,32.3z"/>
	</g>
</g>
</svg>
